In Italy, year 1100, the Northern lands are ruled by the German Emperor Barbarossa. His dream is to also conquer the lands in the center and the South to revive the empire that once belonged to Charles the Great. But in the North, a young man from Milan named Alberto Da Giussano has formed an army of 900 men all from different cities known as the company of death. His dream is to defeat the Emperor and give freedom back to the Northern lands.
 
http://www.imdb.com/title/tt1242516/

Audio: English. Subtitles (srt) : Dutch.

Covers included.

De noordelijke landen worden geregeerd door de Germaanse keizer Frederik I, bijgenaamd "Barbarossa". Het is zijn droom om ook centraal Europa te veroveren, zodat zijn rijk weer net zo groot wordt, als eens het rijk van Karel de Grote was. Een jongeman uit Milaan, genaamd Alberto Da Giussano, heeft echter een klein leger opgericht, bestaande uit 900 vechtlustige mannen die nergens voor terugdeinzen. Alberto is vastbesloten om de keizer te verslaan en Noord-Europa te bevrijden.
 
http://www.moviemeter.nl/film/57381

Audio: Engels. Ondertitels (srt) : Nederlands.

Hoesjes bijgevoegd.

General
Complete name                    : Barbarossa-AC3-XviD-BRRip[Eng]2009 2Lions-Team\Barbarossa-AC3-XviD-BRRip[Eng]2009 2Lions-Team.avi
Format                           : AVI
Format/Info                      : Audio Video Interleave
File size                        : 1.46 GiB
Duration                         : 2h 3mn
Overall bit rate                 : 1 692 Kbps
Writing application              : VirtualDubMod 1.5.4.1 (build 2178/release)
Writing library                  : VirtualDubMod build 2178/release
Source                           : Barbarossa.2009.BluRay.720p.DTS.x264-CHD

Video
ID                               : 0
Format                           : MPEG-4 Visual
Format profile                   : Simple@L3
Format settings, BVOP            : No
Format settings, QPel            : No
Format settings, GMC             : No warppoints
Format settings, Matrix          : Default (H.263)
Codec ID                         : XVID
Codec ID/Hint                    : XviD
Duration                         : 2h 3mn
Bit rate                         : 1 234 Kbps
Width                            : 720 pixels
Height                           : 304 pixels
Display aspect ratio             : 2.35:1
Frame rate                       : 25.000 fps
Color space                      : YUV
Chroma subsampling               : 4:2:0
Bit depth                        : 8 bits
Scan type                        : Progressive
Bits/(Pixel*Frame)               : 0.225
Stream size                      : 1.06 GiB (73%)
Writing library                  : XviD 1.1.2 (UTC 2006-11-01)

Audio
ID                               : 1
Format                           : AC-3
Format/Info                      : Audio Coding 3
Mode extension                   : CM (complete main)
Codec ID                         : 2000
Duration                         : 2h 3mn
Bit rate mode                    : Constant
Bit rate                         : 448 Kbps
Channel(s)                       : 6 channels
Channel positions                : Front: L C R, Side: L R, LFE
Sampling rate                    : 48.0 KHz
Bit depth                        : 16 bits
Stream size                      : 396 MiB (26%)
Alignment                        : Split accross interleaves
Interleave, duration             : 40 ms (1.00 video frame)
Interleave, preload duration     : 500 ms

Thanks to Noppes JvH SE for the Dutch subs!

Brought to you by 
2Lions Team

meer zien??
                   
Kom dan eens kijken op ons NIEUWE forum 
            
http://www.2lions-site.nl/

2Lions the site to be for all your Dutch MOVIES and more

******************************************

DON T HIT AND RUN Niet gelijk afhaken als de FILM binnen is blijf seeden. 

Don`t quit after you finished the download, but keep seeding

There are fake torrents from uploaders who use our team name.
Those are not ours, or members from our team.
We 2Lions-Team are not responsible for the fake posts on our name

Wij 2Lions-Team zijn niet verantwoordelijk voor die zieke FAKE posten die op onze naam worden gedaan

Please check our site !!!

to the fakers , get a life !!!